<svg width="59" height="57" viewBox="0 0 59 57" fill="none" xmlns="http://www.w3.org/2000/svg">
<path d="M19.7341 45.8963C19.7341 46.132 19.4605 46.3206 19.1155 46.3206C18.723 46.356 18.4494 46.1674 18.4494 45.8963C18.4494 45.6606 18.723 45.472 19.0679 45.472C19.4248 45.4366 19.7341 45.6252 19.7341 45.8963ZM16.0347 45.3659C15.9514 45.6017 16.1893 45.8727 16.5462 45.9435C16.8554 46.0613 17.2123 45.9435 17.2837 45.7077C17.355 45.472 17.129 45.2009 16.7722 45.0948C16.4629 45.0123 16.1179 45.1302 16.0347 45.3659ZM21.2923 45.1656C20.9474 45.2481 20.7095 45.472 20.7452 45.7431C20.7808 45.9788 21.0901 46.132 21.447 46.0495C21.7919 45.967 22.0298 45.7431 21.9942 45.5074C21.9585 45.2834 21.6373 45.1302 21.2923 45.1656ZM29.1194 0C12.6208 0 0 12.4111 0 28.7589C0 41.83 8.30282 53.0153 20.1623 56.952C21.6849 57.2231 22.2202 56.2919 22.2202 55.5258C22.2202 54.7951 22.1845 50.7641 22.1845 48.289C22.1845 48.289 13.8579 50.0569 12.1093 44.7766C12.1093 44.7766 10.7532 41.3468 8.80242 40.4628C8.80242 40.4628 6.07843 38.6123 8.99274 38.6477C8.99274 38.6477 11.9546 38.8834 13.5843 41.6886C16.1893 46.2381 20.5548 44.9298 22.2558 44.1519C22.5294 42.2661 23.3026 40.9578 24.1591 40.1799C17.5097 39.4491 10.8008 38.4944 10.8008 27.1559C10.8008 23.9146 11.7048 22.2881 13.6081 20.2137C13.2988 19.4476 12.2877 16.2888 13.9173 12.2107C16.4034 11.4446 22.125 15.3931 22.125 15.3931C24.504 14.733 27.0615 14.3912 29.5952 14.3912C32.1288 14.3912 34.6863 14.733 37.0653 15.3931C37.0653 15.3931 42.7869 11.4328 45.273 12.2107C46.9026 16.3006 45.8915 19.4476 45.5823 20.2137C47.4855 22.2999 48.6512 23.9264 48.6512 27.1559C48.6512 38.5298 41.645 39.4374 34.9956 40.1799C36.0899 41.111 37.0177 42.879 37.0177 45.6488C37.0177 49.6208 36.9821 54.5358 36.9821 55.5022C36.9821 56.2684 37.5292 57.1995 39.0399 56.9284C50.9351 53.0153 59 41.83 59 28.7589C59 12.4111 45.6179 0 29.1194 0ZM11.5621 40.6514C11.4075 40.7692 11.4431 41.0403 11.6454 41.2643C11.8357 41.4528 12.1093 41.5353 12.2639 41.3821C12.4185 41.2643 12.3829 40.9932 12.1806 40.7692C11.9903 40.5806 11.7167 40.4981 11.5621 40.6514ZM10.2774 39.6967C10.1942 39.8499 10.3131 40.0385 10.551 40.1563C10.7413 40.2742 10.9792 40.2388 11.0625 40.0738C11.1458 39.9206 11.0268 39.732 10.7889 39.6142C10.551 39.5434 10.3607 39.5788 10.2774 39.6967ZM14.1315 43.8926C13.9411 44.0458 14.0125 44.3994 14.2861 44.6234C14.5597 44.8945 14.9046 44.9298 15.0593 44.7412C15.2139 44.588 15.1425 44.2344 14.9046 44.0105C14.6429 43.7394 14.2861 43.704 14.1315 43.8926ZM12.7754 42.16C12.5851 42.2779 12.5851 42.5843 12.7754 42.8554C12.9657 43.1265 13.2869 43.2444 13.4415 43.1265C13.6319 42.9733 13.6319 42.6668 13.4415 42.3958C13.275 42.1247 12.9657 42.0068 12.7754 42.16Z" fill="white"/>
</svg>
