<svg width="1440" height="900" viewBox="0 0 1440 900" fill="none" xmlns="http://www.w3.org/2000/svg">
<path opacity="0.96" d="M1264.43 691.369C1267.01 688.958 1270.65 688.792 1273.95 688.097C1277.01 687.309 1280 688.842 1283.1 688.683C1283.23 688.683 1416.95 688.226 1416.95 688.226C1424.28 688.476 1431.62 687.859 1438.96 688.342V695.976C1423.2 694.935 1382.59 696.262 1371.13 696.098C1265.64 696.24 1272.91 694.534 1266.9 700.659C1243.14 724.294 1241.67 726.818 1236.23 727.448C1230.69 728.001 1120.36 727.851 1111.99 727.881C1111.38 727.897 975.922 729.153 966.526 728.053C966.094 728.047 905.449 728.322 904.855 728.437C901.811 728.987 898.719 729.274 895.645 728.938C890.548 728.37 885.445 729.152 880.348 729.097C859.754 729.459 881.478 718.419 778.365 817.102C774.509 821.578 769.895 825.267 765.758 829.449C762.794 832.264 760.245 835.873 756.224 837.247C753.202 838.197 697.01 837.821 696.398 837.815C691.919 837.681 687.005 838.92 682.929 836.508C678.908 834.194 676.121 830.365 672.558 827.483C664.436 820.83 661.89 814.714 655.452 816.894C642.111 820.976 634.603 824.81 626.373 819.899C614.661 814.061 613.422 800.103 620.298 792.914C625.138 787.418 633.493 785.282 640.35 787.95C644.775 789.165 648.166 792.377 651.485 795.375C651.485 795.375 680.892 824.022 681.199 824.308C689.393 831.559 682.407 830.441 741.636 830.182C756.69 830.036 751.171 830.393 759.537 823.819C759.907 823.525 783.597 800.124 785.199 798.282C785.199 798.282 849.798 734.811 854.747 729.749C858.28 726.367 861.635 721.743 866.976 721.469C895.028 721.122 912.775 721.763 912.775 721.763C946.7 721.724 1040.26 720.345 1064.27 720.914C1064.27 720.914 1231.23 720.352 1231.23 720.352C1238.06 720.192 1240.19 714.679 1253.3 702.302C1257.08 698.734 1260.54 694.832 1264.43 691.369ZM635.062 793.28C623.24 796.205 626.178 809.112 632.874 813.907C641.065 818.905 649.363 807.764 646.948 801.119C646.288 798.225 643.996 796.204 641.717 794.537C639.548 793.836 637.322 793.323 635.062 793.28Z" fill="white" fill-opacity="0.25"/>
<path opacity="0.96" d="M1304.67 703.002C1307.34 702.847 1438.34 702.728 1438.96 702.727V709.737C1430.28 709.325 1401.32 710.491 1388.18 710.072C1359.43 710.555 1355.4 709.829 1313.65 710.341C1308.27 710.053 1302.9 710.451 1297.54 710.664C1295.16 710.731 1293.14 712.142 1291.46 713.674C1288.66 716.202 1266.16 738.852 1265.8 739.273C1259.23 746.861 1255.06 745.451 1249.53 745.587C1182.51 745.659 1181.04 746.009 1181.04 746.009C1177.3 745.951 1150.12 746.705 1143.66 744.854C1140.88 744.527 1114.03 744.003 1113.83 744.011C1104.47 744.817 1095.06 744.146 1085.68 744.469C1082.36 744.628 1079.28 746.24 1075.95 746.197C1075.33 746.202 1038.49 746.354 1036.85 746.282C1035.44 746.325 988.02 747.218 975.075 746.471C975.075 746.471 969.012 746.957 890.761 746.856C880.239 747.413 882.014 746.256 873.055 754.776C871.26 756.509 838.464 789.073 834.95 792.477C826.004 800.985 805.725 821.226 801.123 825.781C792.854 834.221 784.078 842.141 775.864 850.634C773.07 853.785 769.221 856.325 764.857 856.124C741.497 856.025 682.823 856.261 681.044 856.081C674.562 855.473 667.832 845.135 658.847 839.398C655.161 837.19 638.702 838.272 635.886 838.378C607.371 838.541 604.082 838.957 599.877 835.9C595.513 832.791 592.372 828.053 587.421 825.781C579.067 822.875 569.533 823.778 561.833 818.985C552.151 813.332 550.027 799.606 559.358 791.738C567.921 784.332 581.834 786.34 588.815 797.552C591.571 803.112 593.304 815.555 596.069 820.383C597.904 823.773 605.299 830.62 610.211 830.703C610.823 830.698 657.14 830.422 657.948 830.526C660.442 830.794 663.197 831.063 665.123 832.895C668.46 835.912 671.986 838.739 675.078 842.036C685.279 851.852 681.457 847.371 714.779 848.589C764.992 848.449 765.158 849.539 769.177 845.175C780.707 833.34 812.202 802.662 812.202 802.662C812.815 802.023 832.56 782.281 836.018 779.427C840.75 774.566 852.108 762.967 869.705 745.922C877.779 737.889 877.445 739.373 896.822 739.29C896.823 739.29 988.537 739.131 988.538 739.131L1041.1 738.648C1041.55 738.686 1075.49 738.647 1075.95 738.648C1076.68 738.634 1092.55 740.21 1100.39 739.07C1103.4 738.694 1120.28 738.8 1123.29 739.009C1128.2 738.934 1129.3 738.663 1132.74 739.125C1133.1 739.082 1150.62 738.235 1151.1 738.264C1152.42 738.348 1180.98 738.214 1184.73 738.038C1187.21 738.099 1251.52 738.796 1254.52 737.683C1257.82 736.14 1283.78 709.548 1284.37 708.934C1286.64 706.681 1288.99 704.098 1292.3 703.451C1296.38 702.752 1300.54 703.265 1304.67 703.002ZM563.978 801.829C564.307 804.718 565.622 807.362 566.3 810.177C567.229 811.611 568.073 813.315 569.759 814.012C580.337 819.288 591.661 801.876 577.575 793.873C568.326 791.061 563.256 797.562 563.978 801.829Z" fill="white" fill-opacity="0.25"/>
<path opacity="0.96" d="M1297.71 733.895C1302.97 730.319 1304.66 732.966 1438.96 731.953V738.866C1438.34 738.873 1417.76 739.246 1387.01 739.47C1300 739.531 1305.04 738.348 1300.56 742.31C1286.79 754.359 1282.37 763.647 1273.96 763.67C1252.91 763.975 1164.83 763.946 1164.56 763.926C1154.74 763.895 1126.76 764.745 1119.94 764.39C1119.64 764.373 1099.15 764.258 1091.22 764.433C964.762 764.626 975.12 764.755 970.191 763.915C967.511 763.374 954.296 764.78 949.882 764.33C946.264 763.989 942.646 764.245 939.047 764.489C935.161 764.74 931.31 763.824 927.442 764.19C925.75 764.337 891.653 765.124 891.335 765.118C886.036 764.7 882.364 771.042 875.171 777.545C874.559 778.111 840.239 811.715 833.27 818.812C832.622 819.438 789.173 862.293 786.15 865.184C773.375 877.246 783.862 873.617 728.17 874.424C668.054 874.488 674.015 876.173 665.369 868.208C654.693 857.053 652.065 856.332 649.406 856.324C649.313 856.321 623.261 856.843 607.187 856.429C592.93 856.923 578.659 856.618 564.401 856.734C560.783 856.862 557.251 855.433 554.641 852.967C544.115 843.499 529.665 828.936 524.835 824.791C524.223 824.199 490.98 792.312 486.98 790.051C478.471 786.47 462.286 788.876 455.054 777.204C450.722 770.653 450.471 758.754 464.471 751.947C467.417 751.618 470.387 751.142 473.375 751.38C480.141 752.078 486.708 757.886 488.77 763.636C491.038 769.815 492.022 776.374 493.873 782.676C495.67 787.769 500.725 790.377 504.239 794.126C506.293 796.25 528.155 816.614 529.167 817.428C529.779 817.983 550.06 837.645 553.906 840.937C567.105 852.406 558.214 848.103 587.025 849.065C598.738 849.345 628.142 848.256 635.868 848.772C640.955 849.075 652.271 847.444 657.796 850.22C659.753 851.125 669.462 860.398 670.062 861.01C675.788 866.534 676.062 866.839 684.21 866.878C684.999 866.882 710.11 866.576 711.675 866.652C711.675 866.652 748.941 866.591 748.943 866.591C753.643 866.805 758.342 866.078 763.048 866.439C765.805 866.555 768.622 866.72 771.366 866.163C775.471 865.051 776.791 861.882 794.944 844.583C809.516 829.636 841.329 798.937 858.725 781.424C866.302 774.661 865.417 774.7 880.72 759.96C885.265 755.405 892.406 758.035 919.454 757.793C920.072 757.807 970.356 757.78 975.741 757.017C979.064 756.953 1047.29 756.896 1048.42 756.962C1056.53 756.589 1087.08 757.112 1118.1 756.73C1125.37 756.34 1211.67 756.499 1218.28 756.523C1275.7 756.664 1273.33 757.169 1276.82 753.922C1280.67 750.447 1283.97 746.41 1287.96 743.076C1291.36 740.185 1294.08 736.533 1297.71 733.895ZM462.539 764.476C462.551 767.591 462.368 770.974 464.036 773.758C465.203 775.87 466.615 778.277 469.157 778.9C472.006 779.236 475.348 779.431 477.64 777.343C479.021 775.981 480.873 774.705 481.148 772.635C481.239 772.623 481.416 772.604 481.508 772.598C482.169 770.033 482.694 767.237 481.643 764.708C478.506 755.511 464.717 755.861 462.539 764.476Z" fill="white" fill-opacity="0.25"/>
<path opacity="0.96" d="M1317.24 746.914C1324.58 745.934 1431.44 746.195 1438.96 746.285V753.515C1433 753.515 1374.76 753.57 1374.76 753.57C1320.42 753.198 1321.36 753.626 1318.84 755.585C1313.5 759.749 1303.22 771.719 1295.36 778.521C1288.54 784.538 1283.2 779.967 1218.36 782.032C1217.24 781.998 1150.62 782.263 1150.51 782.264C1146.36 782.337 1142.44 780.469 1138.27 780.817C1122.59 780.474 1106.9 780.615 1091.22 780.578C1086.82 780.468 1082.74 782.484 1078.36 782.454C1074.67 782.478 1070.99 782.099 1067.32 782.521C1067.23 782.53 1042.51 782.208 1035.62 782.783C1035.62 782.783 934.763 783.039 934.763 783.039C912.495 783.44 905.795 781.991 901.053 784.071C897.457 785.63 869.547 814.175 868.955 814.787C855.306 827.783 807.477 875.114 800.567 881.982C790.987 891.144 792.045 892.642 780.735 892.382C774.814 892.113 740.492 892.879 730.632 892.583C729.799 892.597 671.179 893.286 667.653 892.168C665.616 891.628 663.433 890.909 650.688 877.964C646.34 873.543 647.592 874.28 599.847 874.526C590.547 874.78 562.203 874.23 557.855 875.289C552.202 877.359 549.519 883.539 544.056 885.939C540.059 887.728 535.597 886.965 531.38 886.849C530.768 886.849 461.297 887.289 459.844 887.331C452.406 887.586 442.722 900.589 430.57 901.51C417.355 902.104 407.376 889.468 411.117 879.484C413.934 869.188 426.368 862.624 438.656 869.207C454.973 877.878 453.726 877.837 457.259 879.014C460.67 880.225 464.192 879.405 492.266 879.704C506.939 879.343 521.632 879.972 536.305 879.453C544.91 879.319 547.221 867.686 555.758 867.412C557.092 867.385 593.045 866.98 594.39 867.124C594.39 867.124 645.077 866.843 645.078 866.843C653.98 866.614 654.919 871.696 668.675 883.147C672.68 886.575 677.69 884.582 704.373 884.948C729.178 885.25 708.788 884.615 753.246 884.863C769.805 884.329 776.973 884.573 778.303 884.662C787.176 884.723 785.043 885.032 793.35 877.237C795.174 875.482 815.699 854.979 815.699 854.979C827.086 844.421 828.982 841.839 863.675 807.679C868.479 803.393 889.763 782.079 890.486 781.378C892.582 779.339 894.611 776.92 897.539 776.078C906.009 774.589 914.614 775.889 923.146 775.407C923.146 775.407 998.871 775.401 1027.62 775.04C1035.06 775.276 1058.82 774.894 1058.82 774.894C1061.98 775.183 1075.95 774.266 1082.18 775.065C1088.12 775.799 1119.97 775.447 1120.58 775.432C1127.49 775.26 1134.42 775.719 1141.33 775.285C1146.98 774.088 1152.74 774.84 1158.47 774.675C1158.47 774.675 1175.38 774.84 1225.68 774.492C1232.16 774.946 1267.17 774.12 1271.51 774.253C1285.62 773.735 1285.48 777.012 1293.34 769.234C1298.17 764.275 1303.11 759.445 1308.01 754.566C1310.93 751.896 1313.32 748.184 1317.24 746.914ZM422.137 888.18C423.462 889.908 424.74 891.917 426.916 892.68C436.515 896.227 441.227 885.722 440.135 879.918C439.206 875.668 435.423 872.132 431.041 871.821C422.114 870.364 417.063 880.676 422.137 888.18Z" fill="white" fill-opacity="0.25"/>
<path opacity="0.96" d="M0 39L58.6379 39.4443C63.9432 39.5851 64.2976 41.0876 105.405 80.6414C113.299 88.3818 112.715 86.1684 121.515 86.8773C122.695 86.8663 194.064 86.7964 201.527 87.2546C213.601 86.418 263.67 87.3644 263.67 87.3644C267.055 86.9322 294.148 87.8776 297.46 87.4743C301.613 86.9501 305.82 86.9202 309.984 87.3285C312.94 87.609 315.841 86.7744 318.797 86.7984C413.453 86.8642 426.827 87.1309 446.467 87.2127C449.626 87.2766 698.028 87.4074 698.028 87.4074C795.418 86.7714 790.708 87.1049 794.015 89.8374C798.431 93.4306 801.772 98.6671 807.462 100.439C812.837 102.041 818.437 102.759 823.878 104.129C827.151 104.72 829.997 106.51 832.819 108.173C847.658 123.306 833.541 142.849 814.107 137.617C809.008 136.332 805.289 132.069 802.901 127.605C800.91 124.177 801.197 120.096 800.409 116.339C799.475 111.894 799.261 106.821 795.811 103.441C792.495 100.092 789.307 95.5431 784.171 95.2017L666.827 94.8483C664.677 94.6506 598.192 94.4719 578.326 94.7505C553.771 94.2623 326.71 94.394 326.1 94.397C304.412 94.1714 322.034 93.2609 301.08 92.7038C298.876 92.6499 265.18 92.8875 260.182 92.7277C260.182 92.7277 268.055 94.1185 112.94 93.7751C106.342 94.0476 104.777 90.2697 84.726 71.4193C82.7817 69.4825 61.1008 47.9056 58.2404 46.7135C54.3748 45.0432 35.9058 45.788 32.9583 46.0745C29.7154 46.3121 26.4916 45.6791 23.2487 45.7091C15.4995 45.6482 7.74924 45.739 0 45.6781L0 39ZM810.877 119.359C811.371 121.509 811.615 123.707 812.25 125.833C813.466 127.465 814.394 129.664 816.537 130.273C818.29 130.894 820.269 131.546 822.107 130.821C826.174 129.701 829.911 126.656 830.839 122.411C830.93 120.668 830.784 118.933 830.479 117.228C824.153 105.929 811.472 109.157 810.877 119.359Z" fill="white" fill-opacity="0.25"/>
<path opacity="0.96" d="M0 63.042C30.7747 64.0144 17.5449 57.2354 51.2851 89.483C68.0051 104.797 70.472 110.846 78.1492 110.723C82.4343 110.817 133.124 110.979 133.124 110.979C136.006 111.417 138.926 111.478 141.838 111.46C142.058 111.296 142.504 110.967 142.73 110.802C142.73 110.802 280.285 110.675 280.287 110.675L385.343 110.833C394.238 110.367 416.807 110.748 428.091 110.876C433.766 111.046 509.954 110.915 515.945 111.108C515.945 111.108 729.744 111.181 729.747 111.181C741.958 111.963 753.385 98.0491 768.006 106.309C772.457 108.786 776.755 115.058 776.599 121.192C776.798 131.624 765.619 142.384 750.901 137.353C744.378 135.124 735.528 124.369 732.104 121.343C727.487 117.186 730.19 119.217 623.505 118.707C617.745 118.014 549.291 119.116 541.069 118.567C531.846 118.008 452.423 118.604 448.849 118.335C386.761 118.133 186.822 118.074 186.822 118.074C184.289 117.822 158.773 117.57 155.775 117.867C151.659 118.269 147.61 117.234 143.524 116.977C109.956 116.582 72.6536 117.543 72.6536 117.543C69.7652 117.375 66.7866 116.146 55.371 104.365C52.9201 101.798 23.3759 72.7961 20.8248 71.1518C18.6572 69.7141 15.952 69.7022 13.448 69.6532C8.96469 69.6682 4.48234 69.7471 0 69.6742V63.042ZM755.103 111.473C746.83 115.455 748.916 124.358 750.327 127.672C751.89 129.224 753.143 131.436 755.482 131.898C758.486 132.507 761.9 132.385 764.556 130.705C766.199 129.432 767.854 127.782 768.062 125.608L768.501 125.815C769.884 120.27 769.897 116.8 763.127 112.082C760.531 111.279 757.79 111.035 755.103 111.473Z" fill="white" fill-opacity="0.25"/>
<path opacity="0.96" d="M0 89.533C4.38022 92.6589 34.415 122.209 35.9328 123.726C42.8621 130.045 41.2672 128.312 59.8233 128.477C60.1587 128.477 232.325 128.377 232.66 128.361C233.272 128.347 318.953 130.096 355.433 128.349C355.433 128.349 408.592 128.61 408.593 128.61C421.604 128.963 567.76 128.726 569.753 128.726C729.132 129.396 720.473 126.604 727.341 133.373C742.549 147.215 739.053 147.089 751.151 146.947C785.329 147.551 788.794 145.625 793.82 149.377C802.036 155.979 800.901 159.517 814.669 161.654C818.669 162.22 822.565 163.335 826.492 164.261C830.15 166.233 834.162 168.158 836.391 171.854C840 177.426 839.628 185.057 835.853 190.452C833.557 193.771 829.807 195.562 826.412 197.535C823.933 197.888 821.447 198.271 818.943 198.192C811.621 197.845 804.269 192.998 802.253 185.764C797.55 167.625 801.253 166.526 789.013 156.466C785.413 153.429 781.356 154.232 766.411 154.427C758.5 154.239 741.371 155.58 736.647 153.275C730.143 149.189 725.49 142.837 719.493 138.118C713.378 133.641 652.522 138.526 437.288 136.254C436.676 136.22 336.085 136.436 332.885 136.095C326.454 135.529 319.974 136.333 313.557 135.663C305.636 134.013 297.514 135.054 289.496 134.652C288.885 134.625 256.255 134.049 247.958 135.711C243.165 135.892 260.889 135.809 95.8352 135.809C32.3225 135.175 40.3781 138.258 30.211 128.824C27.678 126.498 6.18437 105.434 5.83195 105.056C4.09788 103.156 2.04544 101.603 0 100.062V89.533H0ZM816.147 171.171C811.522 174.211 809.833 176.067 811.988 186.378C812.208 186.542 812.66 186.871 812.88 187.036C816.133 193.823 825.884 192.397 829.534 186.627C832.785 180.587 831.282 174.571 824.789 171.171C821.985 170.252 818.95 170.288 816.147 171.171Z" fill="white" fill-opacity="0.25"/>
<path opacity="0.96" d="M169.161 146.611C173.575 146.492 214.226 146.614 214.339 146.611C233.264 146.565 380.162 146.543 387.158 146.605C433.196 146.402 586.595 146.617 638.144 146.484C639.755 146.572 686.355 146.94 704.715 146.812C711.658 146.374 713.078 150.353 727.824 163.839C734.54 169.77 732.245 169.453 750.12 164.625C762.315 160.864 772.271 166.944 775.586 176.026C780.15 189.022 764.873 202.945 749.62 196.499C744.168 194.651 735.295 182.084 727.134 175.051C722.395 170.393 717.289 166.13 712.672 161.349C709.65 158.512 706.829 154.554 702.266 154.42C702.266 154.42 663.398 154.308 658.334 154.115C650.484 154.085 338.267 154.077 325.515 154.078C303.008 153.961 311.856 154.351 248.556 153.774C224.926 154.225 229.539 153.659 203.976 153.865C202.036 153.792 164.061 153.859 161.851 153.719C136.095 152.524 140.739 153.544 134.248 153.39C128.621 153.264 108.547 153.312 105.686 153.068C105.069 153.095 68.2754 153.685 63.5177 153.488C42.3455 153.457 21.1722 153.47 0 153.482V146.771C9.65851 146.69 168.548 146.608 169.161 146.611ZM755.115 169.32C752.025 170.781 748.752 173.503 749.155 177.267C750.199 179.952 750.511 182.79 750.37 185.658C751.561 186.736 752.715 187.856 753.797 189.056C768.369 194.862 774.238 175.34 763.311 170.398C760.837 168.899 757.863 169.259 755.115 169.32Z" fill="white" fill-opacity="0.25"/>
<path opacity="0.96" d="M679.237 171.213C687.45 160.112 702.851 162.663 707.829 168.029C714.72 174.914 715.878 186.357 707.719 193.033C700.126 199.348 692.586 198.906 676.604 196.285C672.878 195.449 669.798 197.234 657.416 209.731C651.161 216.02 647.011 213.086 629.019 214C624.274 213.653 618.833 214.78 614.881 211.46C606.551 204.572 599.443 196.358 591.284 189.281C575.401 173.805 574.345 172.241 569.17 172.358C569.169 172.358 492.81 172.267 492.81 172.267C467.012 171.458 316.541 172.455 293.714 171.243C289.209 171.163 220.535 171.726 214.972 171.786C212.976 171.954 4.29812 171.479 0 171.659V164.527C0 164.527 104.877 164.191 152.721 164.545C184.48 163.746 257.68 165.027 257.68 165.027C281.313 165.036 344.347 164.307 344.367 164.308C348.722 164.653 493.608 164.443 505.045 164.606C528.544 164.235 552.056 164.758 575.561 164.74C580.611 166.001 583.598 170.483 587.378 173.65C587.434 173.696 619.445 204.232 619.494 204.275C623.311 207.52 628.673 206.291 633.253 206.291C638.267 205.87 643.403 206.984 648.337 205.785C654.495 202.652 671.79 183.772 672.367 183.162C674.993 179.386 676.721 175.062 679.237 171.213ZM696.844 190.463C705.384 189.042 711.049 175.69 698.969 170.014C680.047 165.718 682.206 192.018 696.844 190.463Z" fill="white" fill-opacity="0.25"/>
<path opacity="0.96" d="M1301.21 0H1315C1311.88 3.99432 1264.37 50.2327 1263.76 50.8052C1256.65 57.1983 1196.13 117.119 1191.63 120.173C1186.9 123.406 1181.93 122.077 1149.96 122.599C1120.18 123.119 1123.5 121.437 1115.4 129.406C1110.88 134.127 1044.61 198.237 1043.91 198.944C1034.88 207.867 974.472 266.94 972.226 268.811C930.733 308.059 940.419 303.509 924.955 304.437C914.457 304.451 780.807 305.531 778.031 305.667C774.528 305.731 772.391 306.801 759.631 319.976C747.379 332.135 734.829 343.986 734.829 343.986C733.01 345.712 678.201 399.156 675.352 401.617C673.177 403.625 626.312 449.107 625.736 449.65C621.154 453.88 610.621 452.652 589.779 452.941C577.062 453.321 581.086 451.727 565.936 462.466C562.283 464.684 558.043 466.323 553.7 465.946C549.295 465.641 544.462 466.068 540.615 463.539C522.927 452.53 536.338 413.284 577.885 443.715C580.152 444.307 582.491 444.586 584.843 444.647C584.843 444.647 609.943 445.056 609.944 445.056C619.034 445.147 620.05 442.199 629.749 432.953C630.361 432.361 680.574 383.598 685.353 378.692C685.353 378.692 738.01 327.693 738.011 327.691C741.14 324.571 743.591 321.44 746.728 319.068C746.868 318.861 747.138 318.453 747.272 318.252C752.067 314.79 755.525 309.873 760.173 306.241C760.308 305.979 760.577 305.467 760.717 305.205C760.999 305.083 761.567 304.839 761.854 304.717C770.038 295.627 773.64 297.107 780.993 296.947C935.771 296.102 928.938 297.668 933.404 293.419C937.6 289.488 941.303 285.015 945.848 281.456C948.242 279.591 949.898 277.007 952.085 274.923C955.134 272.388 1006.28 222.375 1010.09 218.754C1015.38 213.851 1073.94 155.87 1085.19 145.609C1120.39 111.263 1113.86 114.342 1131.64 114.317C1191.82 112.872 1181 117.743 1193.66 105.718C1204.29 95.1194 1239.26 61.1227 1239.64 60.774C1243.11 57.501 1287.99 13.5165 1290.94 10.84C1294.52 7.39219 1298.25 4.03428 1301.21 0ZM546.466 454.513C548.926 458.711 555.628 460.125 559.875 454.531C560.668 453.045 563.469 449.881 562.575 445.749C561.933 441.807 558.531 438.711 554.719 437.828C548.697 436.075 539.471 442.361 546.466 454.513Z" fill="white" fill-opacity="0.25"/>
<path opacity="0.96" d="M1223.51 0H1237C1234.3 4.50572 1218.85 18.4025 1212.03 25.1313C1206.59 30.3695 1203.7 29.7828 1196.52 29.9493C1154.58 29.2703 1101.56 29.6757 1086.89 30.989C1082.51 31.2903 1079.51 36.0785 1071.69 43.4486C1069.08 45.8184 1067.95 49.2765 1067.53 52.6622C1067.12 56.8884 1065.56 60.8718 1064.58 64.9771C1060.41 81.1188 1038.36 81.6967 1030.04 69.7951C1022.97 59.4733 1028.83 46.8571 1041.47 44.5002C1055.94 40.9132 1059.27 42.2909 1066.35 34.4946C1081.13 18.013 1083.5 22.8616 1102.78 21.8229C1102.8 21.8209 1166.15 21.587 1174.62 21.6356C1206.39 21.4522 1200.08 22.8071 1212.34 11.4913C1216.09 7.6962 1220.19 4.20739 1223.51 0ZM1044.55 49.773C1039.17 50.6879 1035.75 55.8725 1040.42 65.4073C1043.41 70.8258 1055.03 71.1826 1055.86 59.2771C1056.59 53.3947 1050.01 48.7631 1044.55 49.773Z" fill="white" fill-opacity="0.25"/>
</svg>
