<svg width="59" height="59" viewBox="0 0 59 59" fill="none" xmlns="http://www.w3.org/2000/svg">
<path d="M54.7857 0H4.20112C1.88326 0 0 1.9096 0 4.25379V54.7462C0 57.0904 1.88326 59 4.20112 59H54.7857C57.1036 59 59 57.0904 59 54.7462V4.25379C59 1.9096 57.1036 0 54.7857 0ZM17.8317 50.5714H9.08705V22.4147H17.8449V50.5714H17.8317ZM13.4594 18.5692C10.6542 18.5692 8.38906 16.2908 8.38906 13.4989C8.38906 10.7069 10.6542 8.42857 13.4594 8.42857C16.2513 8.42857 18.5297 10.7069 18.5297 13.4989C18.5297 16.304 16.2645 18.5692 13.4594 18.5692ZM50.6109 50.5714H41.8663V36.875C41.8663 33.6089 41.8004 29.4078 37.3228 29.4078C32.7661 29.4078 32.0681 32.9636 32.0681 36.6379V50.5714H23.3234V22.4147H31.7125V26.2603H31.831C33.0031 24.0478 35.8609 21.7167 40.1147 21.7167C48.9647 21.7167 50.6109 27.5509 50.6109 35.1366V50.5714Z" fill="white"/>
</svg>
