<svg width="59" height="47" viewBox="0 0 59 47" fill="none" xmlns="http://www.w3.org/2000/svg">
<path d="M52.9354 11.7132C52.9729 12.2273 52.9729 12.7414 52.9729 13.2555C52.9729 28.9343 40.806 47 18.5686 47C11.7177 47 5.35346 45.0538 0 41.6758C0.973389 41.7859 1.90921 41.8227 2.92005 41.8227C8.5729 41.8227 13.7767 39.9501 17.9322 36.7555C12.6161 36.6453 8.16116 33.2305 6.62623 28.5305C7.37503 28.6405 8.12371 28.714 8.90996 28.714C9.99558 28.714 11.0813 28.5671 12.0921 28.3102C6.55145 27.2085 2.39585 22.4351 2.39585 16.6703V16.5235C4.00556 17.4047 5.87755 17.9555 7.86155 18.0289C4.60455 15.8991 2.47075 12.264 2.47075 8.15148C2.47075 5.9484 3.06963 3.92886 4.11792 2.16635C10.0704 9.36322 19.0178 14.0631 29.0507 14.5773C28.8636 13.696 28.7512 12.7782 28.7512 11.8602C28.7512 5.32416 34.1421 0 40.8433 0C44.3248 0 47.4695 1.43203 49.6783 3.74531C52.4111 3.23127 55.0317 2.23982 57.3528 0.881256C56.4542 3.63522 54.545 5.94851 52.0368 7.41716C54.4702 7.16025 56.8287 6.49917 59 5.58129C57.3531 7.93119 55.2939 10.0241 52.9354 11.7132Z" fill="white"/>
</svg>
